<svg width="15" height="12" viewBox="0 0 15 12" fill="none" xmlns="http://www.w3.org/2000/svg">
<path d="M12.9481 0.0133555C12.6939 0.0540205 12.5223 0.10824 12.3063 0.21668L12.0584 0.338675L8.84928 3.76131L5.64012 7.18395L4.40729 5.86911C3.72733 5.1507 3.11092 4.50684 3.0283 4.43228C2.69785 4.16118 2.31021 4.01886 1.88444 4.01886C1.55399 4.01886 1.36335 4.05952 1.05197 4.22218C0.854968 4.32384 0.753292 4.3984 0.562649 4.60172C-0.028346 5.23203 -0.161796 6.09277 0.200426 6.89929L0.321167 7.16361L2.39918 9.38663C3.80994 10.898 4.52803 11.6503 4.63606 11.7181C4.93474 11.9079 5.15715 11.9756 5.53209 11.996C5.94515 12.0163 6.17392 11.9621 6.51072 11.7791C6.74585 11.6571 6.81575 11.5825 10.6922 7.44149C14.9245 2.92768 14.7719 3.09712 14.9181 2.62269C15.0071 2.33126 15.0261 1.88394 14.9626 1.57896C14.791 0.75888 14.1682 0.148905 13.3802 0.0336879C13.1515 -0.00697704 13.0879 -0.00697699 12.9481 0.0133555Z" fill="#516640"/>
</svg>
