<svg width="45" height="45" viewBox="0 0 45 45" fill="none" xmlns="http://www.w3.org/2000/svg">
<rect width="45" height="45" rx="5" fill="#F1F1F1"/>
<path d="M9.29289 32.7071C8.90237 32.3166 8.90237 31.6834 9.29289 31.2929L15.6569 24.9289C16.0474 24.5384 16.6805 24.5384 17.0711 24.9289C17.4616 25.3195 17.4616 25.9526 17.0711 26.3431L11.4142 32L17.0711 37.6569C17.4616 38.0474 17.4616 38.6805 17.0711 39.0711C16.6805 39.4616 16.0474 39.4616 15.6569 39.0711L9.29289 32.7071ZM34 33H10V31H34V33Z" fill="#163300"/>
<path d="M34.7071 14.7071C35.0976 14.3166 35.0976 13.6834 34.7071 13.2929L28.3431 6.92893C27.9526 6.53841 27.3195 6.53841 26.9289 6.92893C26.5384 7.31946 26.5384 7.95262 26.9289 8.34315L32.5858 14L26.9289 19.6569C26.5384 20.0474 26.5384 20.6805 26.9289 21.0711C27.3195 21.4616 27.9526 21.4616 28.3431 21.0711L34.7071 14.7071ZM10 15H34V13H10V15Z" fill="#163300"/>
</svg>
